<svg id="Layer_1" data-name="Layer 1" xmlns="http://www.w3.org/2000/svg" xmlns:xlink="http://www.w3.org/1999/xlink" viewBox="0 0 50 50"><defs><style>.cls-1{fill:url(#Degradado_sin_nombre_51);}.cls-2{fill:url(#Degradado_sin_nombre_51-2);}.cls-3,.cls-4{font-size:3.75px;fill:#84807e;font-family:MyriadPro-Bold, Myriad Pro;font-weight:700;}.cls-3{letter-spacing:0.5em;}.cls-4{letter-spacing:0.78em;}.cls-5{letter-spacing:0.7em;}.cls-6{letter-spacing:0.78em;}</style><linearGradient id="Degradado_sin_nombre_51" x1="9.99" y1="27.07" x2="47.27" y2="27.07" gradientUnits="userSpaceOnUse"><stop offset="0" stop-color="#754c24"/><stop offset="0.33" stop-color="#e0be75"/><stop offset="0.61" stop-color="#e0be75"/><stop offset="0.66" stop-color="#e0be75"/><stop offset="0.74" stop-color="#ddba73"/><stop offset="0.81" stop-color="#d3b06c"/><stop offset="0.87" stop-color="#c29d60"/><stop offset="0.93" stop-color="#aa844f"/><stop offset="0.99" stop-color="#8b633a"/><stop offset="0.99" stop-color="#8a6239"/></linearGradient><linearGradient id="Degradado_sin_nombre_51-2" x1="5" y1="22.8" x2="52.26" y2="22.8" xlink:href="#Degradado_sin_nombre_51"/></defs><path d="M10.76,36.14" transform="translate(-5 -5)"/><path class="cls-1" d="M46.44,25.59c-2.13-2.68-6.51-3-9.71-3.19l-8.06-.54a7.69,7.69,0,0,1-2.88-.56,6.55,6.55,0,0,1-2.46-2.64,9,9,0,0,0-1.93-2.39,5.38,5.38,0,0,0-5.19-.7,4.89,4.89,0,0,0-2.13,1.71,2.69,2.69,0,0,0-.7,2l0,.09a3.4,3.4,0,0,0-2.31,1.06A2.67,2.67,0,0,0,10.52,23l.06.19a1.08,1.08,0,0,1,.1.64l0,.06a1.9,1.9,0,0,1-.23.31,2.31,2.31,0,0,0-.2.24,1.36,1.36,0,0,0,0,1.44,1.61,1.61,0,0,0,1.29.85h.12a.57.57,0,0,1,.28,0A.42.42,0,0,1,12,27c.52,1.31.07,2.69-.41,4.16s-1,2.93-.43,4.36a1.91,1.91,0,0,0,1.44,1.31h1.56v2.11h2V36.83H40.82v2.11h2V36.83h3V35.21c0-.44,0-.8,0-1.15a1.66,1.66,0,0,0-.1-.87,2.88,2.88,0,0,0-.3-.47,1.74,1.74,0,0,1-.2-.3,1.88,1.88,0,0,1-.21-.61,5.71,5.71,0,0,1,0-1.37v0c.08-1.14.48-1.77,1.24-1.93l.13,0a2.79,2.79,0,0,0,.39-.1.79.79,0,0,0,.5-.54C47.44,27.08,46.71,25.94,46.44,25.59Zm-32-8.09A4.34,4.34,0,0,1,16.4,16a4.9,4.9,0,0,1,4.7.63,8.71,8.71,0,0,1,1.84,2.29,7,7,0,0,0,2.63,2.79,8.07,8.07,0,0,0,3.06.61l8.07.54c1,.07,2.12.14,3.21.29v5.3H17.76c-.4-3.25-1.39-7.35-3.88-8.94l-.06-.25A2.43,2.43,0,0,1,14.46,17.5Zm-3,3.21a2.85,2.85,0,0,1,2.17-.91c1.89,1.2,3.17,4.23,3.71,8.77L14.5,34.42a.34.34,0,0,1,0-.1.37.37,0,0,1,0-.11s0-.08,0-.12c0-.64,0-1.29,0-1.92l0-2.4,0-1.57a1.48,1.48,0,0,0,0-.21,1.48,1.48,0,0,0,0-.21,1.48,1.48,0,0,0,0-.21c0-.07,0-.14,0-.21s0-.13,0-.19a1.36,1.36,0,0,0,0-.2,3.5,3.5,0,0,0-1-2.54,3,3,0,0,0-2.2-.63,1.53,1.53,0,0,0-.13-.74L11,22.88A2.26,2.26,0,0,1,11.45,20.71Zm4.28,17.82h-1.1v-1.7h1.1Zm26.63,0H41.27v-1.7h1.09Zm3-2.11H12.67c-.66-.1-1-.82-1.06-1-.49-1.31,0-2.67.43-4.12s1-3,.41-4.41a.8.8,0,0,0-.33-.43,1,1,0,0,0-.52-.11h-.1a1.13,1.13,0,0,1-.91-.62,1,1,0,0,1,0-1l.17-.2a1.92,1.92,0,0,0,.18-.22v0a2.51,2.51,0,0,1,2.07.48A3.17,3.17,0,0,1,13.92,27c0,.06,0,.13,0,.19s0,.13,0,.19,0,.14,0,.2,0,.14,0,.21a1.34,1.34,0,0,1,0,.2,1.62,1.62,0,0,1,0,.22l0,1.55,0,2.39c0,.64,0,1.3,0,2a.62.62,0,0,0,0,.13.49.49,0,0,0,0,.12.45.45,0,0,0,0,.11.38.38,0,0,0,0,.1s0,.06,0,.09,0,.06,0,.08l0,.08,0,.07a.33.33,0,0,0,.09.13l.09.11h31v1.29Zm0-2.8a2.06,2.06,0,0,1,0,.43c0,.21,0,.43,0,.66H14.85l2.85-5.9H40Zm1.46-5.91a.4.4,0,0,1-.25.27,1.37,1.37,0,0,1-.29.07l-.15,0c-1,.21-1.5,1-1.59,2.3v0a5.58,5.58,0,0,0,0,1.47,2.29,2.29,0,0,0,.17.59l-4.34-3.95V23.16c2.25.35,4.42,1,5.71,2.67C46.4,26.24,46.94,27.21,46.79,27.71Z" transform="translate(-5 -5)"/><path class="cls-2" d="M45.46,11.42A24.69,24.69,0,0,0,29,5h-.85a24.67,24.67,0,0,0-16.41,6.43A20.42,20.42,0,0,0,5,26.48a20.38,20.38,0,0,0,5.76,14.05l.06.07H46.43l.07-.07a20.38,20.38,0,0,0,5.76-14A20.42,20.42,0,0,0,45.46,11.42Zm.78,28.8H11a20,20,0,0,1-5.6-13.74c0-11.42,10.22-20.89,22.78-21.1h.23V6.83H27.07V8.46a3.94,3.94,0,0,0-2.75,3.65v.37h3a1.42,1.42,0,0,0,2.62,0h3v-.37a3.94,3.94,0,0,0-2.75-3.65V6.83H28.84V5.38H29c12.58.19,22.81,9.66,22.81,21.1A20,20,0,0,1,46.24,40.22ZM29.91,8.77A3.61,3.61,0,0,1,32.52,12h0v.15H29.6l0,.16a.93.93,0,0,1-.94.72.94.94,0,0,1-.94-.72l0-.16H24.73a3.59,3.59,0,0,1,2.62-3.33l.14,0V7.2h2.28V8.73Z" transform="translate(-5 -5)"/><path d="M19.39,47v.8H16.67V43.44h2.66v.81H17.48v.94h1.63V46H17.48v1Zm0,0" transform="translate(-5 -5)"/><path d="M51.84,46.2V47H49.13V42.68h2.65v.8H49.93v.94h1.63v.78H49.93v1Zm0,0" transform="translate(-5 -5)"/><path d="M39.43,46.54v.8H36.72V43h2.65v.8H37.52v.94h1.63v.78H37.52v1Zm0,0" transform="translate(-5 -5)"/><path d="M46.46,47.36a1.65,1.65,0,0,1-1-.29,1.88,1.88,0,0,1-.68-.79,2.79,2.79,0,0,1,0-2.31,1.88,1.88,0,0,1,.68-.79,1.73,1.73,0,0,1,1-.29,1.76,1.76,0,0,1,.83.2,1.69,1.69,0,0,1,.62.57l-.52.59a1.05,1.05,0,0,0-.89-.51,1,1,0,0,0-.58.18,1.22,1.22,0,0,0-.4.49,1.9,1.9,0,0,0,0,1.43,1.16,1.16,0,0,0,.4.49,1,1,0,0,0,.58.18,1.05,1.05,0,0,0,.89-.51l.52.59a1.77,1.77,0,0,1-.62.57,1.78,1.78,0,0,1-.83.2Zm0,0" transform="translate(-5 -5)"/><path d="M13.46,44.26H12.34v-.82H15.4v.82H14.27v3.51h-.81Zm0,0" transform="translate(-5 -5)"/><rect x="0.41" y="38.45" width="0.81" height="4.32"/><rect x="25.12" y="38.31" width="0.81" height="4.32"/><path d="M11.09,43.44v4.33h-.67L8.67,45.14v2.63h-.8V43.44h.67l1.75,2.63V43.44Zm0,0" transform="translate(-5 -5)"/><path d="M43.81,43v4.32h-.67l-1.75-2.62v2.62h-.8V43h.67L43,45.66V43Zm0,0" transform="translate(-5 -5)"/><path d="M35,45.3h.68v1.82a1.8,1.8,0,0,1-.61.42,1.73,1.73,0,0,1-.7.15,1.46,1.46,0,0,1-.9-.3,2,2,0,0,1-.64-.83,3.36,3.36,0,0,1,0-2.39,2,2,0,0,1,.64-.83,1.51,1.51,0,0,1,.92-.3,1.55,1.55,0,0,1,.77.2,1.61,1.61,0,0,1,.58.58l-.48.61a1,1,0,0,0-.84-.5.91.91,0,0,0-.55.18,1.19,1.19,0,0,0-.37.5,2,2,0,0,0-.14.76,2,2,0,0,0,.14.74,1.17,1.17,0,0,0,.37.51.89.89,0,0,0,.54.19,1,1,0,0,0,.59-.2Zm0,0" transform="translate(-5 -5)"/><path d="M20.93,43.44H22V47h2.27v.82H20.93Zm0,0" transform="translate(-5 -5)"/><path d="M25.72,43.27h1.05v3.51H29v.82H25.72Zm0,0" transform="translate(-5 -5)"/><text class="cls-3" transform="translate(0 49.03) scale(0.73 1)">C A N A P E</text><text class="cls-4" transform="translate(30.87 49.06) scale(0.88 1)">M<tspan class="cls-5" x="6.09" y="0">A</tspan><tspan class="cls-6" x="11.16" y="0">TH</tspan></text></svg>